<?xml version="1.0" encoding="utf-8"?>
<!-- Generator: Adobe Illustrator 26.0.3, SVG Export Plug-In . SVG Version: 6.00 Build 0)  -->
<svg version="1.1" id="Layer_1" xmlns="http://www.w3.org/2000/svg" xmlns:xlink="http://www.w3.org/1999/xlink" x="0px" y="0px"
	 viewBox="0 0 426 342.9" style="enable-background:new 0 0 426 342.9;" xml:space="preserve">
<style type="text/css">
	.st0{fill:none;}
	.st1{fill:none;stroke:#000000;stroke-miterlimit:10;}
	.st2{fill:#F15A29;stroke:#F15A29;stroke-miterlimit:10;}
	.st3{fill:#F15A29;stroke:#F15A29;stroke-width:0.9996;stroke-miterlimit:9.998;}
	.st4{fill:#F15A29;stroke:#F15A29;stroke-width:1;stroke-miterlimit:10.0012;}
	.st5{font-family:'ArialMT';}
	.st6{font-size:24px;}
</style>
<line class="st0" x1="102.5" y1="14.1" x2="103.3" y2="34"/>
<line class="st0" x1="97.7" y1="56.1" x2="103.3" y2="34"/>
<path class="st1" d="M182,18.5c1.1,21.3-2.2,38.8-2.2,38.8l-0.9,52.9l-0.2,18.2l3,24.5l2,16.7l-0.4,19.1v8.2l3.9,13.4l3.9,13
	l3.5,14.3l0.4,14.7l1,15.6l10.4,3.5l6.1-7.8"/>
<path class="st1" d="M209.4,277.2"/>
<polyline class="st1" points="247.5,262.2 239.5,271.5 229.9,266.3 229.7,259.6 228,253.1 230.2,244.7 230.4,228 229.7,213.9 
	228.4,203.2 231,186.3 231.9,175.5 229.7,162.9 226.1,141.9 224.1,116.5 220.2,84.4 219.8,84.2 215.9,116.3 213.9,141.6 
	210.2,162.7 208.1,175.3 208.9,186.1 211.5,203 210.2,213.6 209.6,227.7 209.8,244.4 212,252.9 211.7,265.5 "/>
<path class="st1" d="M257.9,18.7c-1.1,21.3,2.2,38.8,2.2,38.8l0.9,52.9l0.2,18.2l-3,24.5l-2,16.7l0.4,19.1v8.2l-3.9,13.4l-3.9,13
	l-3.5,14.3l-0.4,14.7l2.6,9.5"/>
<path class="st0" d="M159,232.3"/>
<rect x="256.4" y="113.2" class="st2" width="7.8" height="16.5"/>
<rect x="251.4" y="189.4" class="st2" width="7.8" height="16.5"/>
<rect x="173.4" y="114" class="st2" width="7.8" height="16.5"/>
<rect x="179.3" y="188.4" class="st2" width="7.8" height="16.5"/>
<rect x="192.2" y="257.1" class="st2" width="4.8" height="10.4"/>
<path class="st1" d="M310,65c0.1-0.1-1.5,8.4,5.9,20.4c2.2,5.7,6.4,7.1,6.9,8.5c0.2,0.5,0.5,1.2,0.9,2.2c0.8,2.2,1,2.9,2.3,5.6
	c1.7,3.4,1,3.2,4.3,14.2c2.8,9.3,5.4,16.5,6.1,18.2c0,0,0.5,2.4,4.6,13.2c-0.9,7.8-1.3,7.2-1.3,12.1c0,4.8,0.1,4.8-0.4,8.7
	c-0.6,4.6-2.2,4.8-4.6,11.9c-0.7,1.9-1.4,5.2-2.9,11.9c-1.5,6.8-1.8,9-2,10.7c-0.4,4,0.5,6.2,0.9,8.9c0.5,3.9,0.5,4.5,2.9,10.8
	c0.8,2.2,1.7,5.2,3.5,11.3c1.2,4,2.1,7.2,3.2,11.6c2.8,11.2,2.5,13.7,2.3,15c-0.2,1.1-0.3,1.1-1.4,6.9c-0.8,3.9-1,5.2-1.2,6.9
	c-0.1,1.6-0.3,3.6,0,6.1c0.4,3,0.8,6.5,2.9,7.5c1.1,0.5,2.3,0.9,4.8,0.4c3.1-0.6,3.9-1.1,8.2-1c4.6,0.1,4.2-0.5,9.3-0.6
	c6.4-0.1,6.9,0.8,12.7,0.6c3.1-0.1,3.3-0.4,8.7-0.9c4.5-0.4,9.8-0.6,9.8-0.6s-1.4-0.2,0,0c2.2,0.4,8.3,0.2,9.8-0.1
	c3-0.6,4.4-0.3,5.5-1.9c0.8-1.1,2.6,0.2,3.6-2.5c0.9-2.6-0.7-4.7-1-5.6c-0.4-1-1.7-1.4-3.8-2c-2.5-0.7-4.6-0.8-5.2-0.9
	c-3.9-0.2-4.6,0.3-7.5,0.3c-2.9-0.1-4.9-0.6-8.1-1.4s-5.4-1.7-8.1-2.9c-5.1-2.1-7.7-3.2-9.5-5.2c-2-2.1-2.8-4.4-3.5-6.1
	c-1.5-4.1-2.1-4.2-2.5-9.1c-0.5-5.9-0.5-8.7-1.2-14c-0.7-4.9,0.1-5.6,0.9-17.1c0.7-10.9,0.2-12.1,1.2-20.2c0.6-4.6,1.3-8.2,1.7-10.7
	c1.6-8.2,2.4-12.3,3.8-15.3c1.6-3.5,3.3-5.7,4.3-10.4c0.3-1.2,0.6-2.8,0.6-4.9c0-4.5-1.6-6.6-2.3-10.1c-0.8-3.7-0.5-8.8,0.2-14.1
	c0.8-6.4,0.4-2.7,0.4-16c0-9.7,0.6-9.9,0.3-18.5c-0.2-4.9-0.4-5.1-0.6-12.1c-0.2-6.9-0.9-8.1-1.4-10.8c-1.2-6.5-2.3-6.2-2.7-10.8
	c-0.4-4.9,1.7-5.2,2.9-13.9c0.1-0.9,0.7-5.3,0.6-11c-0.1-3-0.3-4.1-0.6-9.8c-0.3-5.3-0.2-6.4-0.3-7.2c-1.5-11.2-44-22.8-51.8-11
	c-1.7,2.7-1.9,8.2-2.3,19.4c-0.2,5.4-0.8,7.4-2,9.9c-2.1,4.2-2.5,5.3-3.6,7.7c-1,2.1-1.8,3.7-1.9,3.8C311.3,52.1,310.5,55.8,310,65"
	/>
<rect x="347.9" y="187.7" class="st2" width="7.8" height="16.5"/>
<rect x="353.8" y="273.9" class="st2" width="16.5" height="7.8"/>
<rect x="316.9" y="13.6" class="st2" width="7.8" height="16.5"/>
<rect x="216.2" y="39.3" class="st2" width="7.8" height="16.5"/>
<rect x="243.8" y="256.1" class="st2" width="4.8" height="10.4"/>
<g>
	<path class="st1" d="M110,16.4c-1.1,21.3,2.2,38.8,2.2,38.8l0.9,52.9l0.2,18.2l-3,24.5l-2,16.7l0.4,19.1v8.2l-3.9,13.4l-3.9,13
		l-3.5,14.3L97,250.4l2.6,9.5l5.2,14.7v5.6l-5.6,5.2l-8.7,4.3l-4.3,2.6l-4.8-1.7l1.3-15.6l-0.2-14.3l-0.7-3.5l-1.7-6.5l2.2-8.5
		l0.2-16.7l-0.7-14.1l-1.3-10.6l2.6-16.9l0.9-10.8l-2.2-12.6l-3.7-21l-2-25.4L72.2,82l-0.4-0.2"/>
	<path class="st1" d="M34.6,16.3c1.1,21.3-2.2,38.8-2.2,38.8L31.5,108l-0.2,18.2l3,24.5l2,16.7l-0.4,19.1v8.2l3.9,13.4l3.9,13
		l3.5,14.3l0.4,14.7l-2.6,9.5l-5.2,14.7v5.6l5.6,5.2l8.7,4.3l4.3,2.6l4.8-1.7L61.9,275l0.2-14.3l0.7-3.5l1.7-6.5l-2.2-8.5l-0.2-16.7
		l0.7-14.1l1.3-10.6l-2.6-16.9l-0.9-10.8l2.2-12.6l3.7-21l2-25.4L72.4,82l0.4-0.2"/>
</g>
<rect x="103.8" y="192.9" class="st2" width="7.8" height="16.5"/>
<rect x="32" y="186.5" class="st2" width="7.8" height="16.5"/>
<rect x="36.4" y="258.5" transform="matrix(0.3363 -0.9417 0.9417 0.3363 -217.9025 213.6083)" class="st3" width="12.4" height="5.9"/>
<rect x="99.5" y="255.2" transform="matrix(0.9312 -0.3646 0.3646 0.9312 -88.2552 55.3463)" class="st4" width="5.9" height="12.4"/>
<text transform="matrix(1 0 0 1 39.2257 328.5674)" class="st5 st6">Anterior</text>
<text transform="matrix(1 0 0 1 182.9456 328.1794)" class="st5 st6">Posterior</text>
<text transform="matrix(1 0 0 1 334.5675 330.0531)" class="st5 st6">Sagittal</text>
<rect x="25.8" y="117.5" class="st2" width="7.8" height="16.5"/>
<rect x="108.8" y="116.8" class="st2" width="7.8" height="16.5"/>
<rect x="352.9" y="115.1" class="st2" width="7.8" height="16.5"/>
</svg>
